<?xml version="1.0" encoding="UTF-8" standalone="no"?>
<!-- Created with Inkscape (http://www.inkscape.org/) -->

<svg
   width="60.238529mm"
   height="18.039948mm"
   viewBox="0 0 213.44362 63.921073"
   id="svg2"
   version="1.1"
   inkscape:version="1.4.2 (f4327f4, 2025-05-13)"
   sodipodi:docname="logo.svg"
   xmlns:inkscape="http://www.inkscape.org/namespaces/inkscape"
   xmlns:sodipodi="http://sodipodi.sourceforge.net/DTD/sodipodi-0.dtd"
   xmlns="http://www.w3.org/2000/svg"
   xmlns:svg="http://www.w3.org/2000/svg"
   xmlns:rdf="http://www.w3.org/1999/02/22-rdf-syntax-ns#"
   xmlns:cc="http://creativecommons.org/ns#"
   xmlns:dc="http://purl.org/dc/elements/1.1/">
  <defs
     id="defs4" />
  <sodipodi:namedview
     id="base"
     pagecolor="#ffffff"
     bordercolor="#666666"
     borderopacity="1.0"
     inkscape:pageopacity="0.0"
     inkscape:pageshadow="2"
     inkscape:zoom="3.959798"
     inkscape:cx="98.363603"
     inkscape:cy="18.056477"
     inkscape:document-units="px"
     inkscape:current-layer="text3344"
     showgrid="false"
     fit-margin-top="0"
     fit-margin-left="0"
     fit-margin-right="0"
     fit-margin-bottom="0"
     inkscape:window-width="1920"
     inkscape:window-height="1009"
     inkscape:window-x="-8"
     inkscape:window-y="-8"
     inkscape:window-maximized="1"
     showguides="false"
     inkscape:showpageshadow="2"
     inkscape:pagecheckerboard="0"
     inkscape:deskcolor="#d1d1d1" />
  <metadata
     id="metadata7">
    <rdf:RDF>
      <cc:Work
         rdf:about="">
        <dc:format>image/svg+xml</dc:format>
        <dc:type
           rdf:resource="http://purl.org/dc/dcmitype/StillImage" />
      </cc:Work>
    </rdf:RDF>
  </metadata>
  <g
     inkscape:label="Layer 1"
     inkscape:groupmode="layer"
     id="layer1"
     transform="translate(-228.42934,-279.87984)">
    <flowRoot
       xml:space="preserve"
       id="flowRoot3336"
       style="font-style:normal;font-weight:normal;line-height:0.01%;font-family:sans-serif;letter-spacing:0px;word-spacing:0px;fill:#000000;fill-opacity:1;stroke:none;stroke-width:1px;stroke-linecap:butt;stroke-linejoin:miter;stroke-opacity:1"><flowRegion
         id="flowRegion3338"><rect
           id="rect3340"
           width="150.51273"
           height="76.771591"
           x="268.70059"
           y="283.63611" /></flowRegion><flowPara
         id="flowPara3342"
         style="font-size:40px;line-height:1.25">DESIGN</flowPara></flowRoot>
    <g
       id="text3344"
       style="line-height:0%;letter-spacing:0px;word-spacing:0px;stroke-width:1px"
       aria-label="DESIGN&#10;Soluciones de Ingeniería">
      <path
         style="font-size:40px;line-height:1.25;font-family:Xirod;-inkscape-font-specification:Xirod"
         d="m 258.40432,293.83979 c 0,4.96 -2.44,7.4 -7.32,7.4 h -14.4 v -10.48 h -6.8 v 17.12 h 21.36 c 8.88,0 13.96,-5.2 13.96,-13.92 v -14.08 h -35.32 v 6.6 h 28.52 z m 47,-13.96 h -35.52 v 14.08 c 0,8.56 5.32,13.92 14,13.92 h 21.52 v -6.64 h -21.4 c -4.16,0 -6.12,-1.48 -6.96,-4.2 h 27.64 v -6.28 h -28 v -4.28 h 28.72 z m 38.03999,0 h -21.44 c -8.52,0 -12.76,3.96 -12.76,11.8 v 5.36 h 27.8 c -0.44,2.72 -2,4.2 -4.76,4.2 h -23.04 v 6.64 h 21.6 c 8.48,0 12.72,-3.96 12.72,-11.8 v -5.32 h -27.84 c 0.36,-2.88 1.96,-4.28 4.8,-4.28 h 22.92 z m 11.87999,0 h -6.8 v 28 h 6.8 z m 19.03998,0 c -8.92,0 -13.96,5.2 -13.96,13.96 v 14.04 h 36.76 v -17.12 h -11.88 v 6.28 h 5.08 v 4.2 h -23.2 v -7.16 c 0,-5.92 1.64,-7.6 7.32,-7.6 h 22.52 v -6.6 z m 65.56002,0 h -6.64 v 16.44 c 0,0.4 0.04,1 0.12,1.84 l -1.24,-1.32 c -7,-7.6 -15.32,-14.08 -24.28,-16.96 h -5.88 v 28 h 6.64 v -18.8 c 0,-0.28 -0.04,-0.96 -0.12,-1.96 0.68,0.24 1.32,0.52 1.84,0.68 7.28,2.76 14.68,9.6 22.36,20.08 h 7.2 z"
         id="path1" />
      <path
         style="font-size:17.5px;line-height:1.25"
         d="m 238.23891,336.55482 q 0,0.74341 -0.35034,1.46973 -0.3418,0.72631 -0.96558,1.23046 -0.68359,0.54688 -1.5979,0.8545 -0.90576,0.30761 -2.1875,0.30761 -1.37573,0 -2.47803,-0.25634 -1.09375,-0.25635 -2.23022,-0.7605 v -2.11914 h 0.11963 q 0.96557,0.80322 2.23022,1.23901 1.26465,0.43579 2.37549,0.43579 1.57226,0 2.44385,-0.5896 0.88012,-0.5896 0.88012,-1.57226 0,-0.84595 -0.4187,-1.24756 -0.41015,-0.40161 -1.2561,-0.62378 -0.64087,-0.1709 -1.39282,-0.28198 -0.74341,-0.11109 -1.58081,-0.28199 -1.6919,-0.35888 -2.51221,-1.22192 -0.81177,-0.87158 -0.81177,-2.2644 0,-1.5979 1.3501,-2.61475 1.3501,-1.02539 3.42651,-1.02539 1.34155,0 2.46094,0.25635 1.11938,0.25634 1.98242,0.63232 v 1.99951 h -0.11963 q -0.72632,-0.61523 -1.91406,-1.01684 -1.1792,-0.41016 -2.41821,-0.41016 -1.35865,0 -2.1875,0.56397 -0.82032,0.56396 -0.82032,1.45263 0,0.79468 0.41016,1.24756 0.41016,0.45288 1.44409,0.69214 0.54688,0.11963 1.55518,0.29053 1.0083,0.1709 1.70898,0.35034 1.41846,0.37598 2.13623,1.13647 0.71778,0.7605 0.71778,2.12769 z m 10.72387,-1.13648 q 0,2.33277 -1.19629,3.68287 -1.19628,1.35009 -3.20434,1.35009 -2.02515,0 -3.22144,-1.35009 -1.18774,-1.3501 -1.18774,-3.68287 0,-2.33276 1.18774,-3.68286 1.19629,-1.35864 3.22144,-1.35864 2.00806,0 3.20434,1.35864 1.19629,1.3501 1.19629,3.68286 z m -1.65771,0 q 0,-1.85424 -0.72632,-2.75146 -0.72632,-0.90576 -2.0166,-0.90576 -1.30737,0 -2.03369,0.90576 -0.71778,0.89722 -0.71778,2.75146 0,1.79444 0.72632,2.72583 0.72632,0.92286 2.02515,0.92286 1.28174,0 2.00806,-0.91431 0.73486,-0.92285 0.73486,-2.73438 z m 5.76782,4.76807 h -1.60644 v -13.2959 h 1.60644 z m 11.09131,0 h -1.60645 v -1.05957 q -0.81176,0.64087 -1.55517,0.98267 -0.74341,0.34179 -1.64063,0.34179 -1.5039,0 -2.3413,-0.9143 -0.83741,-0.92285 -0.83741,-2.7002 v -6.19507 h 1.60645 v 5.43457 q 0,0.72632 0.0684,1.24756 0.0684,0.5127 0.29052,0.88013 0.23072,0.37598 0.59815,0.54687 0.36743,0.1709 1.06811,0.1709 0.62378,0 1.35865,-0.3247 0.74341,-0.32471 1.38427,-0.82886 v -7.12647 h 1.60645 z m 10.21973,-0.59814 q -0.80323,0.38452 -1.52954,0.59814 -0.71778,0.21362 -1.52955,0.21362 -1.03393,0 -1.89697,-0.29907 -0.86304,-0.30762 -1.47827,-0.92285 -0.62378,-0.61523 -0.96558,-1.55518 -0.34179,-0.93994 -0.34179,-2.19604 0,-2.34131 1.28174,-3.67432 1.29028,-1.333 3.40087,-1.333 0.82032,0 1.60645,0.23071 0.79468,0.23071 1.45264,0.56396 v 1.78589 h -0.0855 q -0.73487,-0.57251 -1.521,-0.88013 -0.77759,-0.30761 -1.521,-0.30761 -1.36718,0 -2.16186,0.92285 -0.78613,0.91431 -0.78613,2.69165 0,1.72607 0.76904,2.65747 0.77759,0.92285 2.17895,0.92285 0.48707,0 0.99122,-0.12817 0.50415,-0.12818 0.90576,-0.33325 0.35034,-0.17945 0.65796,-0.37598 0.30761,-0.20508 0.48706,-0.35034 h 0.0855 z m 3.7854,-10.54444 h -1.81153 v -1.66626 h 1.81153 z m -0.10254,11.14258 h -1.60645 v -9.54468 h 1.60645 z m 11.31347,-4.76807 q 0,2.33277 -1.19628,3.68287 -1.19629,1.35009 -3.20435,1.35009 -2.02515,0 -3.22144,-1.35009 -1.18774,-1.3501 -1.18774,-3.68287 0,-2.33276 1.18774,-3.68286 1.19629,-1.35864 3.22144,-1.35864 2.00806,0 3.20435,1.35864 1.19628,1.3501 1.19628,3.68286 z m -1.65771,0 q 0,-1.85424 -0.72632,-2.75146 -0.72632,-0.90576 -2.0166,-0.90576 -1.30737,0 -2.03369,0.90576 -0.71778,0.89722 -0.71778,2.75146 0,1.79444 0.72632,2.72583 0.72632,0.92286 2.02515,0.92286 1.28174,0 2.00806,-0.91431 0.73486,-0.92285 0.73486,-2.73438 z m 12.12524,4.76807 h -1.60644 v -5.43457 q 0,-0.65796 -0.0769,-1.23047 -0.0769,-0.58105 -0.28198,-0.90576 -0.21362,-0.35889 -0.61523,-0.52978 -0.40161,-0.17945 -1.04248,-0.17945 -0.65796,0 -1.37574,0.32471 -0.71777,0.32471 -1.37573,0.82886 v 7.12646 h -1.60644 v -9.54468 h 1.60644 v 1.05957 q 0.75195,-0.62378 1.55518,-0.97412 0.80322,-0.35034 1.64917,-0.35034 1.54663,0 2.3584,0.9314 0.81176,0.93139 0.81176,2.6831 z m 11.08277,-4.60571 h -7.03247 q 0,0.88013 0.26489,1.53808 0.26489,0.64942 0.72632,1.06812 0.44433,0.41016 1.05102,0.61523 0.61524,0.20508 1.3501,0.20508 0.97412,0 1.95679,-0.38452 0.99121,-0.39307 1.40991,-0.76904 h 0.0854 v 1.75171 q -0.81177,0.34179 -1.65772,0.57251 -0.84594,0.23071 -1.77734,0.23071 -2.37549,0 -3.7085,-1.28174 -1.333,-1.29028 -1.333,-3.65723 0,-2.3413 1.27319,-3.71704 1.28174,-1.37573 3.3667,-1.37573 1.93115,0 2.97363,1.12793 1.05103,1.12793 1.05103,3.20435 z m -1.56372,-1.23047 q -0.009,-1.26465 -0.64087,-1.95679 -0.62378,-0.69214 -1.90552,-0.69214 -1.29028,0 -2.05933,0.7605 -0.76049,0.7605 -0.86303,1.88843 z m 10.81787,3.08472 q 0,1.30737 -1.08521,2.14477 -1.07666,0.8374 -2.948,0.8374 -1.05957,0 -1.94824,-0.2478 -0.88012,-0.25635 -1.47827,-0.55542 v -1.80298 h 0.0855 q 0.7605,0.57251 1.69189,0.91431 0.9314,0.33325 1.78589,0.33325 1.05957,0 1.65772,-0.3418 0.59814,-0.34179 0.59814,-1.07666 0,-0.56396 -0.3247,-0.85449 -0.32471,-0.29053 -1.24756,-0.4956 -0.3418,-0.0769 -0.89722,-0.17945 -0.54687,-0.10254 -0.99976,-0.22216 -1.2561,-0.33326 -1.78588,-0.97413 -0.52124,-0.64941 -0.52124,-1.58935 0,-0.5896 0.23925,-1.11084 0.24781,-0.52124 0.74341,-0.9314 0.47852,-0.40161 1.21338,-0.63232 0.74341,-0.23926 1.65772,-0.23926 0.85449,0 1.72607,0.21362 0.88013,0.20508 1.46118,0.50415 v 1.71753 h -0.0855 q -0.61523,-0.45288 -1.49536,-0.76049 -0.88013,-0.31617 -1.72607,-0.31617 -0.88013,0 -1.48682,0.3418 -0.60669,0.33325 -0.60669,0.99976 0,0.5896 0.36743,0.88867 0.35889,0.29907 1.16211,0.48706 0.44434,0.10254 0.99121,0.20508 0.55542,0.10254 0.92285,0.18798 1.11939,0.25635 1.72608,0.88013 0.60669,0.63233 0.60669,1.67481 z m 16.19262,2.75146 h -1.60644 v -0.99975 q -0.69214,0.59814 -1.44409,0.93139 -0.75196,0.33325 -1.63208,0.33325 -1.70899,0 -2.71729,-1.31591 -0.99975,-1.31592 -0.99975,-3.64869 0,-1.21337 0.34179,-2.16186 0.35035,-0.94849 0.93994,-1.61499 0.58106,-0.64942 1.3501,-0.99121 0.77759,-0.3418 1.60645,-0.3418 0.75195,0 1.33301,0.16235 0.58105,0.15381 1.22192,0.48706 v -4.13574 h 1.60644 z m -1.60644,-2.34985 v -5.4773 q -0.64941,-0.29052 -1.16211,-0.40161 -0.5127,-0.11108 -1.11938,-0.11108 -1.3501,0 -2.10206,0.93994 -0.75195,0.93994 -0.75195,2.66601 0,1.70044 0.58106,2.58912 0.58105,0.88012 1.86279,0.88012 0.68359,0 1.38428,-0.29907 0.70068,-0.30762 1.30737,-0.78613 z m 12.75757,-2.25586 h -7.03247 q 0,0.88013 0.26489,1.53808 0.26489,0.64942 0.72632,1.06812 0.44433,0.41016 1.05102,0.61523 0.61524,0.20508 1.3501,0.20508 0.97412,0 1.95679,-0.38452 0.99121,-0.39307 1.40991,-0.76904 h 0.0854 v 1.75171 q -0.81177,0.34179 -1.65772,0.57251 -0.84594,0.23071 -1.77734,0.23071 -2.37549,0 -3.7085,-1.28174 -1.333,-1.29028 -1.333,-3.65723 0,-2.3413 1.27319,-3.71704 1.28174,-1.37573 3.3667,-1.37573 1.93115,0 2.97363,1.12793 1.05103,1.12793 1.05103,3.20435 z m -1.56372,-1.23047 q -0.009,-1.26465 -0.64087,-1.95679 -0.62378,-0.69214 -1.90552,-0.69214 -1.29028,0 -2.05933,0.7605 -0.76049,0.7605 -0.86303,1.88843 z m 14.76562,5.83618 h -5.02441 v -1.29883 h 1.66626 v -10.12573 h -1.66626 v -1.29883 h 5.02441 v 1.29883 h -1.66626 v 10.12573 h 1.66626 z m 10.73242,0 h -1.60644 v -5.43457 q 0,-0.65796 -0.0769,-1.23047 -0.0769,-0.58105 -0.28198,-0.90576 -0.21362,-0.35889 -0.61523,-0.52978 -0.40161,-0.17945 -1.04248,-0.17945 -0.65796,0 -1.37574,0.32471 -0.71777,0.32471 -1.37573,0.82886 v 7.12646 h -1.60644 v -9.54468 h 1.60644 v 1.05957 q 0.75196,-0.62378 1.55518,-0.97412 0.80322,-0.35034 1.64917,-0.35034 1.54663,0 2.3584,0.9314 0.81176,0.93139 0.81176,2.6831 z m 10.83496,-1.0852 q 0,2.42675 -1.10229,3.56323 -1.1023,1.13647 -3.39233,1.13647 -0.7605,0 -1.48682,-0.11108 -0.71777,-0.10254 -1.41846,-0.29907 v -1.64063 h 0.0855 q 0.39307,0.15381 1.24756,0.37598 0.85449,0.23071 1.70898,0.23071 0.82032,0 1.35865,-0.19653 0.53833,-0.19654 0.8374,-0.54688 0.29907,-0.33325 0.42725,-0.80322 0.12817,-0.46997 0.12817,-1.05102 v -0.87159 q -0.72632,0.58106 -1.39282,0.87159 -0.65796,0.28198 -1.68335,0.28198 -1.70899,0 -2.71729,-1.23047 -0.99975,-1.23901 -0.99975,-3.48633 0,-1.23047 0.34179,-2.11914 0.35035,-0.89722 0.94849,-1.54663 0.55542,-0.60669 1.3501,-0.93994 0.79468,-0.3418 1.58081,-0.3418 0.82886,0 1.38428,0.1709 0.56396,0.16235 1.18774,0.50415 l 0.10254,-0.41016 h 1.5039 z m -1.60644,-1.53809 v -5.20386 q -0.64087,-0.29052 -1.19629,-0.41015 -0.54687,-0.12818 -1.09375,-0.12818 -1.32446,0 -2.08496,0.88867 -0.7605,0.88868 -0.7605,2.58057 0,1.60645 0.56397,2.4353 0.56396,0.82886 1.87133,0.82886 0.70069,0 1.40137,-0.26489 0.70923,-0.27344 1.29883,-0.72632 z m 12.75757,-1.98242 h -7.03247 q 0,0.88013 0.26489,1.53808 0.26489,0.64942 0.72632,1.06812 0.44433,0.41016 1.05102,0.61523 0.61524,0.20508 1.3501,0.20508 0.97412,0 1.95679,-0.38452 0.99121,-0.39307 1.40991,-0.76904 h 0.0854 v 1.75171 q -0.81177,0.34179 -1.65772,0.57251 -0.84594,0.23071 -1.77734,0.23071 -2.37549,0 -3.7085,-1.28174 -1.333,-1.29028 -1.333,-3.65723 0,-2.3413 1.27319,-3.71704 1.28174,-1.37573 3.3667,-1.37573 1.93115,0 2.97363,1.12793 1.05103,1.12793 1.05103,3.20435 z m -1.56372,-1.23047 q -0.009,-1.26465 -0.64087,-1.95679 -0.62378,-0.69214 -1.90552,-0.69214 -1.29028,0 -2.05933,0.7605 -0.76049,0.7605 -0.86303,1.88843 z m 11.97998,5.83618 h -1.60645 v -5.43457 q 0,-0.65796 -0.0769,-1.23047 -0.0769,-0.58105 -0.28198,-0.90576 -0.21363,-0.35889 -0.61524,-0.52978 -0.40161,-0.17945 -1.04248,-0.17945 -0.65796,0 -1.37573,0.32471 -0.71778,0.32471 -1.37573,0.82886 v 7.12646 h -1.60645 v -9.54468 h 1.60645 v 1.05957 q 0.75195,-0.62378 1.55517,-0.97412 0.80322,-0.35034 1.64917,-0.35034 1.54663,0 2.3584,0.9314 0.81177,0.93139 0.81177,2.6831 z m 4.81933,-11.14258 h -1.81152 v -1.66626 h 1.81152 z m -0.10254,11.14258 h -1.60644 v -9.54468 h 1.60644 z m 11.16822,-4.60571 h -7.03247 q 0,0.88013 0.26489,1.53808 0.26489,0.64942 0.72632,1.06812 0.44433,0.41016 1.05102,0.61523 0.61524,0.20508 1.3501,0.20508 0.97412,0 1.95679,-0.38452 0.99121,-0.39307 1.40991,-0.76904 h 0.0854 v 1.75171 q -0.81177,0.34179 -1.65772,0.57251 -0.84594,0.23071 -1.77734,0.23071 -2.37549,0 -3.7085,-1.28174 -1.333,-1.29028 -1.333,-3.65723 0,-2.3413 1.27319,-3.71704 1.28174,-1.37573 3.3667,-1.37573 1.93115,0 2.97363,1.12793 1.05103,1.12793 1.05103,3.20435 z m -1.56372,-1.23047 q -0.009,-1.26465 -0.64087,-1.95679 -0.62378,-0.69214 -1.90552,-0.69214 -1.29028,0 -2.05933,0.7605 -0.76049,0.7605 -0.86303,1.88843 z m 9.95483,-1.95679 h -0.0855 q -0.35889,-0.0854 -0.70068,-0.11963 -0.33325,-0.0427 -0.79468,-0.0427 -0.74341,0 -1.43555,0.33325 -0.69214,0.32471 -1.333,0.84595 v 6.77612 h -1.60645 v -9.54468 h 1.60645 v 1.40992 q 0.95703,-0.76905 1.68334,-1.08521 0.73487,-0.32471 1.49537,-0.32471 0.4187,0 0.60669,0.0256 0.18798,0.0171 0.56396,0.0769 z m 3.13599,7.79297 h -1.60645 v -9.54468 h 1.60645 z m 1.7688,-14.32129 -2.33277,3.1958 h -1.27319 l 1.52954,-3.1958 z m 8.8269,14.32129 h -1.5979 v -1.01684 q -0.21362,0.14526 -0.58106,0.41015 -0.35888,0.25635 -0.70068,0.41016 -0.40161,0.19653 -0.92285,0.3247 -0.52124,0.13672 -1.22192,0.13672 -1.29029,0 -2.1875,-0.85449 -0.89722,-0.85449 -0.89722,-2.17895 0,-1.08521 0.46142,-1.75171 0.46998,-0.67505 1.33301,-1.05957 0.87158,-0.38452 2.09351,-0.52124 1.22192,-0.13672 2.62329,-0.20508 v -0.2478 q 0,-0.54688 -0.19653,-0.90577 -0.18799,-0.35888 -0.54688,-0.56396 -0.3418,-0.19653 -0.82031,-0.26489 -0.47852,-0.0684 -0.99976,-0.0684 -0.63232,0 -1.40991,0.1709 -0.77759,0.16235 -1.60644,0.47851 h -0.0854 v -1.63208 q 0.46997,-0.12817 1.35864,-0.28198 0.88867,-0.15381 1.75171,-0.15381 1.0083,0 1.75171,0.1709 0.75195,0.16235 1.29883,0.56396 0.53833,0.39307 0.82031,1.01685 0.28198,0.62378 0.28198,1.54663 z m -1.5979,-2.34985 v -2.65747 q -0.73486,0.0427 -1.73462,0.12817 -0.99121,0.0855 -1.57227,0.2478 -0.69213,0.19654 -1.11938,0.61524 -0.42725,0.41015 -0.42725,1.13647 0,0.82031 0.49561,1.23902 0.4956,0.41015 1.51245,0.41015 0.84595,0 1.54663,-0.3247 0.70069,-0.33326 1.29883,-0.79468 z"
         id="path2" />
    </g>
  </g>
</svg>
